<svg width="1080" height="192" viewBox="0 0 1080 192" fill="none" xmlns="http://www.w3.org/2000/svg">
<rect width="1080" height="192" fill="#414141"/>
<rect width="1080" height="24" fill="#D9D9D9"/>
<rect y="168" width="1080" height="24" fill="#D9D9D9"/>
<path d="M357.559 129V63.5455H383.383C388.326 63.5455 392.545 64.4297 396.039 66.1982C399.555 67.9453 402.229 70.4276 404.061 73.6449C405.915 76.8409 406.842 80.6016 406.842 84.9268C406.842 89.2734 405.904 93.0128 404.029 96.1449C402.154 99.2557 399.438 101.642 395.879 103.304C392.342 104.966 388.06 105.797 383.031 105.797H365.741V94.6747H380.794C383.436 94.6747 385.631 94.3125 387.378 93.5881C389.125 92.8636 390.425 91.777 391.277 90.3281C392.151 88.8793 392.587 87.0788 392.587 84.9268C392.587 82.7535 392.151 80.9212 391.277 79.4297C390.425 77.9382 389.114 76.8089 387.346 76.0419C385.599 75.2536 383.394 74.8594 380.73 74.8594H371.398V129H357.559ZM392.907 99.2131L409.175 129H393.898L377.982 99.2131H392.907ZM416.622 129V63.5455H460.727V74.9553H430.46V90.5518H458.457V101.962H430.46V117.59H460.854V129H416.622ZM507.237 82.37C506.981 79.7919 505.884 77.7891 503.945 76.3615C502.006 74.9339 499.375 74.2202 496.051 74.2202C493.792 74.2202 491.885 74.5398 490.33 75.179C488.774 75.7969 487.581 76.6598 486.75 77.7678C485.941 78.8757 485.536 80.1328 485.536 81.5391C485.493 82.7109 485.738 83.7337 486.271 84.6072C486.825 85.4808 487.581 86.2372 488.54 86.8764C489.499 87.4943 490.607 88.0376 491.864 88.5064C493.121 88.9538 494.463 89.3374 495.891 89.657L501.772 91.0632C504.627 91.7024 507.247 92.5547 509.634 93.62C512.02 94.6854 514.087 95.9957 515.834 97.5511C517.581 99.1065 518.934 100.939 519.893 103.048C520.873 105.158 521.374 107.576 521.395 110.303C521.374 114.309 520.351 117.782 518.327 120.722C516.324 123.641 513.426 125.911 509.634 127.53C505.862 129.128 501.313 129.927 495.987 129.927C490.703 129.927 486.1 129.117 482.18 127.498C478.281 125.879 475.234 123.482 473.039 120.307C470.866 117.111 469.726 113.158 469.62 108.45H483.011C483.16 110.644 483.789 112.477 484.897 113.947C486.026 115.396 487.528 116.493 489.403 117.239C491.299 117.963 493.441 118.325 495.827 118.325C498.171 118.325 500.206 117.984 501.931 117.303C503.679 116.621 505.032 115.673 505.99 114.458C506.949 113.244 507.429 111.848 507.429 110.271C507.429 108.801 506.992 107.565 506.118 106.564C505.266 105.562 504.009 104.71 502.347 104.007C500.706 103.304 498.693 102.665 496.306 102.089L489.179 100.3C483.661 98.9574 479.304 96.8587 476.108 94.0036C472.911 91.1484 471.324 87.3026 471.345 82.4659C471.324 78.5028 472.379 75.0405 474.509 72.0788C476.661 69.1172 479.612 66.8054 483.362 65.1435C487.112 63.4815 491.374 62.6506 496.147 62.6506C501.005 62.6506 505.245 63.4815 508.867 65.1435C512.51 66.8054 515.344 69.1172 517.368 72.0788C519.392 75.0405 520.436 78.4709 520.5 82.37H507.237ZM571.133 63.5455H584.972V106.053C584.972 110.825 583.832 115.001 581.552 118.581C579.294 122.161 576.13 124.952 572.06 126.955C567.991 128.936 563.25 129.927 557.838 129.927C552.405 129.927 547.653 128.936 543.584 126.955C539.514 124.952 536.35 122.161 534.091 118.581C531.833 115.001 530.704 110.825 530.704 106.053V63.5455H544.542V104.87C544.542 107.363 545.086 109.579 546.172 111.518C547.28 113.457 548.836 114.98 550.839 116.088C552.841 117.196 555.174 117.75 557.838 117.75C560.522 117.75 562.856 117.196 564.837 116.088C566.84 114.98 568.385 113.457 569.471 111.518C570.579 109.579 571.133 107.363 571.133 104.87V63.5455ZM596.358 63.5455H613.425L631.45 107.523H632.217L650.243 63.5455H667.31V129H653.886V86.397H653.343L636.404 128.68H627.263L610.324 86.2372H609.781V129H596.358V63.5455ZM678.711 129V63.5455H722.816V74.9553H692.55V90.5518H720.547V101.962H692.55V117.59H722.944V129H678.711Z" fill="white"/>
</svg>
